<svg width="43" height="42" viewBox="0 0 43 42" fill="none" xmlns="http://www.w3.org/2000/svg">
<rect width="42.5135" height="41.5135" rx="8.75674" fill="#E8BE13"/>
<path d="M17.2567 32.7567C18.0852 32.7567 18.7567 32.0852 18.7567 31.2567C18.7567 30.4283 18.0852 29.7567 17.2567 29.7567C16.4283 29.7567 15.7567 30.4283 15.7567 31.2567C15.7567 32.0852 16.4283 32.7567 17.2567 32.7567Z" fill="white" stroke="white" stroke-width="2" stroke-linecap="round" stroke-linejoin="round"/>
<path d="M29.2567 32.7567C30.0852 32.7567 30.7567 32.0852 30.7567 31.2567C30.7567 30.4283 30.0852 29.7567 29.2567 29.7567C28.4283 29.7567 27.7567 30.4283 27.7567 31.2567C27.7567 32.0852 28.4283 32.7567 29.2567 32.7567Z" fill="white" stroke="white" stroke-width="2" stroke-linecap="round" stroke-linejoin="round"/>
<path fill-rule="evenodd" clip-rule="evenodd" d="M8.75674 9.6798C8.75674 9.17001 9.16131 8.75674 9.66036 8.75674H13.8772C14.3079 8.75674 14.6787 9.06725 14.7633 9.49864L15.6729 14.1412H32.8531C33.1224 14.1412 33.3777 14.2639 33.5494 14.4759C33.721 14.6879 33.7912 14.967 33.7407 15.2372L32.0527 24.2793C31.915 24.9876 31.5378 25.6238 30.9871 26.0767C30.4389 26.5275 29.7535 26.7679 29.05 26.7563H18.8189C18.1154 26.7679 17.43 26.5275 16.8818 26.0767C16.3313 25.624 15.9542 24.9881 15.8164 24.2801L14.0544 15.2876C14.0478 15.2605 14.0424 15.2329 14.0382 15.2049L13.1365 10.6029H9.66036C9.16131 10.6029 8.75674 10.1896 8.75674 9.6798Z" fill="white"/>
</svg>
