<svg width="28" height="27" viewBox="0 0 28 27" fill="none" xmlns="http://www.w3.org/2000/svg">
<path d="M5.71867 18.6174C5.45597 21.7808 7.84218 24.364 11.0165 24.364H16.2596C19.828 24.364 22.2799 21.4852 21.6888 17.9606C21.0649 14.2609 17.4965 11.2289 13.742 11.2289C9.67015 11.2289 6.05799 14.5565 5.71867 18.6174Z" stroke="#141415" stroke-width="1.64189" stroke-linecap="round" stroke-linejoin="round"/>
<path d="M12.352 8.49221C13.8633 8.49221 15.0885 7.26705 15.0885 5.75573C15.0885 4.24441 13.8633 3.01925 12.352 3.01925C10.8407 3.01925 9.61551 4.24441 9.61551 5.75573C9.61551 7.26705 10.8407 8.49221 12.352 8.49221Z" stroke="#141415" stroke-width="1.64189" stroke-linecap="round" stroke-linejoin="round"/>
<path d="M19.8281 9.80576C21.0372 9.80576 22.0173 8.82562 22.0173 7.61657C22.0173 6.40752 21.0372 5.42738 19.8281 5.42738C18.6191 5.42738 17.6389 6.40752 17.6389 7.61657C17.6389 8.82562 18.6191 9.80576 19.8281 9.80576Z" stroke="#141415" stroke-width="1.64189" stroke-linecap="round" stroke-linejoin="round"/>
<path d="M23.878 14.1841C24.7848 14.1841 25.5199 13.449 25.5199 12.5422C25.5199 11.6354 24.7848 10.9003 23.878 10.9003C22.9712 10.9003 22.2361 11.6354 22.2361 12.5422C22.2361 13.449 22.9712 14.1841 23.878 14.1841Z" stroke="#141415" stroke-width="1.64189" stroke-linecap="round" stroke-linejoin="round"/>
<path d="M5.2371 11.9948C6.44616 11.9948 7.42629 11.0147 7.42629 9.80566C7.42629 8.5966 6.44616 7.61647 5.2371 7.61647C4.02805 7.61647 3.04792 8.5966 3.04792 9.80566C3.04792 11.0147 4.02805 11.9948 5.2371 11.9948Z" stroke="#141415" stroke-width="1.64189" stroke-linecap="round" stroke-linejoin="round"/>
</svg>
